# xmcd
#
# Track frame offsets:
#	150
#	27412
#	53362
#	74455
#	91872
#	112170
#	163832
#	188695
#	199757
#
# Disc length: 2982 seconds
#
# Revision: 1
# Processed by: cddbd v1.4PL0 Copyright (c) Steve Scherf et al.
# Submitted via: audiograbber 1.82.01
#
DISCID=760ba409
DTITLE=Majida El Roumy - Ya Saken Afkary
DYEAR=1900
DGENRE=
TTITLE0=Ana 3am Bihlam
TTITLE1=MA Zal El Omer Haram
TTITLE2=Ya Saken Afkary
TTITLE3=La Toghdabi
TTITLE4=Li Annak 3ayni
TTITLE5=Min Elayna ghayrak
TTITLE6=Besma3ak Ya Leil
TTITLE7=Salouna
TTITLE8=La Ma fi
EXTD=
EXTT0=
EXTT1=
EXTT2=
EXTT3=
EXTT4=
EXTT5=
EXTT6=
EXTT7=
EXTT8=
PLAYORDER=
